name Walk5.mot
datacolumns 19
datarows 30
range 3.72100000 3.75000000
endheader

                time	   L_ground_force_vx	   L_ground_force_vy	   L_ground_force_vz	   L_ground_force_px	   L_ground_force_py	   L_ground_force_pz	   R_ground_force_vx	   R_ground_force_vy	   R_ground_force_vz	   R_ground_force_px	   R_ground_force_py	   R_ground_force_pz	   L_ground_torque_x	   L_ground_torque_y	   L_ground_torque_z	   R_ground_torque_x	   R_ground_torque_y	   R_ground_torque_z	
          3.72100000	          0.00000000	          0.00000000	          0.00000000	          0.00000000	          0.00000000	          0.00000000	         28.66934504	        189.87114765	          4.44219033	          0.21675499	          0.00000000	          0.12257267	          0.00000000	          0.00000000	          0.00000000	          0.00000000	         -8.66324011	          0.00000000	
          3.72200000	          0.00000000	          0.00000000	          0.00000000	          0.00000000	          0.00000000	          0.00000000	         27.01723262	        180.09100575	          4.24964369	          0.21755054	          0.00000000	          0.12229454	          0.00000000	          0.00000000	          0.00000000	          0.00000000	         -8.41998286	          0.00000000	
          3.72300000	          0.00000000	          0.00000000	          0.00000000	          0.00000000	          0.00000000	          0.00000000	         25.38438844	        170.55381097	          4.00392902	          0.21878061	          0.00000000	          0.12198415	          0.00000000	          0.00000000	          0.00000000	          0.00000000	         -8.14920551	          0.00000000	
          3.72400000	          0.00000000	          0.00000000	          0.00000000	          0.00000000	          0.00000000	          0.00000000	         23.77206543	        161.22380136	          3.71529388	          0.22015322	          0.00000000	          0.12164856	          0.00000000	          0.00000000	          0.00000000	          0.00000000	         -7.86764632	          0.00000000	
          3.72500000	          0.00000000	          0.00000000	          0.00000000	          0.00000000	          0.00000000	          0.00000000	         22.15057159	        152.09002000	          3.40847865	          0.22137612	          0.00000000	          0.12129818	          0.00000000	          0.00000000	          0.00000000	          0.00000000	         -7.59063429	          0.00000000	
          3.72600000	          0.00000000	          0.00000000	          0.00000000	          0.00000000	          0.00000000	          0.00000000	         20.48115601	        143.17003616	          3.11248045	          0.22228848	          0.00000000	          0.12088115	          0.00000000	          0.00000000	          0.00000000	          0.00000000	         -7.32387550	          0.00000000	
          3.72700000	          0.00000000	          0.00000000	          0.00000000	          0.00000000	          0.00000000	          0.00000000	         18.74670979	        134.48090105	          2.84766349	          0.22290526	          0.00000000	          0.12033716	          0.00000000	          0.00000000	          0.00000000	          0.00000000	         -7.06338804	          0.00000000	
          3.72800000	          0.00000000	          0.00000000	          0.00000000	          0.00000000	          0.00000000	          0.00000000	         16.95975901	        126.03606105	          2.61903568	          0.22341529	          0.00000000	          0.11965365	          0.00000000	          0.00000000	          0.00000000	          0.00000000	         -6.79728023	          0.00000000	
          3.72900000	          0.00000000	          0.00000000	          0.00000000	          0.00000000	          0.00000000	          0.00000000	         15.15051939	        117.90122296	          2.41543524	          0.22416747	          0.00000000	          0.11885560	          0.00000000	          0.00000000	          0.00000000	          0.00000000	         -6.51153901	          0.00000000	
          3.73000000	          0.00000000	          0.00000000	          0.00000000	          0.00000000	          0.00000000	          0.00000000	         13.34391201	        110.21036875	          2.22021446	          0.22554252	          0.00000000	          0.11797846	          0.00000000	          0.00000000	          0.00000000	          0.00000000	         -6.19912589	          0.00000000	
          3.73100000	          0.00000000	          0.00000000	          0.00000000	          0.00000000	          0.00000000	          0.00000000	         11.54371917	        103.08186043	          2.02850543	          0.22769904	          0.00000000	          0.11703917	          0.00000000	          0.00000000	          0.00000000	          0.00000000	         -5.86451161	          0.00000000	
          3.73200000	          0.00000000	          0.00000000	          0.00000000	          0.00000000	          0.00000000	          0.00000000	          9.73779321	         96.52123711	          1.85008583	          0.23037744	          0.00000000	          0.11598695	          0.00000000	          0.00000000	          0.00000000	          0.00000000	         -5.51946604	          0.00000000	
          3.73300000	          0.00000000	          0.00000000	          0.00000000	          0.00000000	          0.00000000	          0.00000000	          7.91770722	         90.43696467	          1.70073588	          0.23298143	          0.00000000	          0.11471334	          0.00000000	          0.00000000	          0.00000000	          0.00000000	         -5.17571626	          0.00000000	
          3.73400000	          0.00000000	          0.00000000	          0.00000000	          0.00000000	          0.00000000	          0.00000000	          6.09269021	         84.75805798	          1.59483559	          0.23502517	          0.00000000	          0.11322294	          0.00000000	          0.00000000	          0.00000000	          0.00000000	         -4.84170949	          0.00000000	
          3.73500000	          0.00000000	          0.00000000	          0.00000000	          0.00000000	          0.00000000	          0.00000000	          4.28393538	         79.47982348	          1.53752923	          0.23651680	          0.00000000	          0.11174899	          0.00000000	          0.00000000	          0.00000000	          0.00000000	         -4.52416609	          0.00000000	
          3.73600000	          0.00000000	          0.00000000	          0.00000000	          0.00000000	          0.00000000	          0.00000000	          2.51689482	         74.60350525	          1.52192444	          0.23780130	          0.00000000	          0.11054112	          0.00000000	          0.00000000	          0.00000000	          0.00000000	         -4.22770039	          0.00000000	
          3.73700000	          0.00000000	          0.00000000	          0.00000000	          0.00000000	          0.00000000	          0.00000000	          0.82267093	         70.11716277	          1.53615047	          0.23916757	          0.00000000	          0.10963898	          0.00000000	          0.00000000	          0.00000000	          0.00000000	         -3.95093946	          0.00000000	
          3.73800000	          0.00000000	          0.00000000	          0.00000000	          0.00000000	          0.00000000	          0.00000000	         -0.76981854	         66.01663287	          1.57218459	          0.24069346	          0.00000000	          0.10895633	          0.00000000	          0.00000000	          0.00000000	          0.00000000	         -3.68792372	          0.00000000	
          3.73900000	          0.00000000	          0.00000000	          0.00000000	          0.00000000	          0.00000000	          0.00000000	         -2.24746923	         62.28578688	          1.62999222	          0.24225270	          0.00000000	          0.10839605	          0.00000000	          0.00000000	          0.00000000	          0.00000000	         -3.43509968	          0.00000000	
          3.74000000	          0.00000000	          0.00000000	          0.00000000	          0.00000000	          0.00000000	          0.00000000	         -3.61300153	         58.88997513	          1.71437414	          0.24358039	          0.00000000	          0.10786210	          0.00000000	          0.00000000	          0.00000000	          0.00000000	         -3.19326897	          0.00000000	
          3.74100000	          0.00000000	          0.00000000	          0.00000000	          0.00000000	          0.00000000	          0.00000000	         -4.87914939	         55.79915298	          1.82846143	          0.24444318	          0.00000000	          0.10728053	          0.00000000	          0.00000000	          0.00000000	          0.00000000	         -2.96390902	          0.00000000	
          3.74200000	          0.00000000	          0.00000000	          0.00000000	          0.00000000	          0.00000000	          0.00000000	         -6.06894226	         52.97852812	          1.97226893	          0.24481517	          0.00000000	          0.10657441	          0.00000000	          0.00000000	          0.00000000	          0.00000000	         -2.74879522	          0.00000000	
          3.74300000	          0.00000000	          0.00000000	          0.00000000	          0.00000000	          0.00000000	          0.00000000	         -7.21158292	         50.37376805	          2.14085497	          0.24497430	          0.00000000	          0.10568290	          0.00000000	          0.00000000	          0.00000000	          0.00000000	         -2.55040935	          0.00000000	
          3.74400000	          0.00000000	          0.00000000	          0.00000000	          0.00000000	          0.00000000	          0.00000000	         -8.32976578	         47.92871019	          2.31721953	          0.24536805	          0.00000000	          0.10460265	          0.00000000	          0.00000000	          0.00000000	          0.00000000	         -2.36740244	          0.00000000	
          3.74500000	          0.00000000	          0.00000000	          0.00000000	          0.00000000	          0.00000000	          0.00000000	         -9.43268582	         45.61570808	          2.47469306	          0.24618692	          0.00000000	          0.10333903	          0.00000000	          0.00000000	          0.00000000	          0.00000000	         -2.19327781	          0.00000000	
          3.74600000	          0.00000000	          0.00000000	          0.00000000	          0.00000000	          0.00000000	          0.00000000	        -10.51820775	         43.45011234	          2.59068940	          0.24721917	          0.00000000	          0.10198659	          0.00000000	          0.00000000	          0.00000000	          0.00000000	         -2.02105245	          0.00000000	
          3.74700000	          0.00000000	          0.00000000	          0.00000000	          0.00000000	          0.00000000	          0.00000000	        -11.57461273	         41.46198353	          2.65154708	          0.24840698	          0.00000000	          0.10084917	          0.00000000	          0.00000000	          0.00000000	          0.00000000	         -1.84493983	          0.00000000	
          3.74800000	          0.00000000	          0.00000000	          0.00000000	          0.00000000	          0.00000000	          0.00000000	        -12.57940278	         39.66404035	          2.64653078	          0.25029170	          0.00000000	          0.10032540	          0.00000000	          0.00000000	          0.00000000	          0.00000000	         -1.65982708	          0.00000000	
          3.74900000	          0.00000000	          0.00000000	          0.00000000	          0.00000000	          0.00000000	          0.00000000	        -13.50099159	         38.04735536	          2.56901413	          0.25346290	          0.00000000	          0.10064446	          0.00000000	          0.00000000	          0.00000000	          0.00000000	         -1.46599589	          0.00000000	
          3.75000000	          0.00000000	          0.00000000	          0.00000000	          0.00000000	          0.00000000	          0.00000000	        -14.30801453	         36.56371841	          2.42663260	          0.25769753	          0.00000000	          0.10158162	          0.00000000	          0.00000000	          0.00000000	          0.00000000	         -1.27662908	          0.00000000	
